<?xml version="1.0" encoding="UTF-8" standalone="no"?>
<!-- Created with Inkscape (http://www.inkscape.org/) -->

<svg
   xmlns:dc="http://purl.org/dc/elements/1.1/"
   xmlns:cc="http://creativecommons.org/ns#"
   xmlns:rdf="http://www.w3.org/1999/02/22-rdf-syntax-ns#"
   xmlns:svg="http://www.w3.org/2000/svg"
   xmlns="http://www.w3.org/2000/svg"
   xmlns:sodipodi="http://sodipodi.sourceforge.net/DTD/sodipodi-0.dtd"
   xmlns:inkscape="http://www.inkscape.org/namespaces/inkscape"
   height="505.35764"
   id="svg45"
   inkscape:version="0.48.2 r9819"
   sodipodi:docname="cross_hand_drawn_linda_k_01_rotated.svg"
   sodipodi:version="0.32"
   width="339.48865"
   version="1.1">
  <metadata
     id="metadata3">
    <rdf:RDF>
      <cc:Work
         rdf:about="">
        <dc:title>Cross Hand Drawn</dc:title>
        <dc:description>This is a standard cross drawn by pen and converted to an SVG in inkscape with the new trace tool.</dc:description>
        <dc:subject>
          <rdf:Bag>
            <rdf:li />
            <rdf:li>symbol</rdf:li>
            <rdf:li>hash(0x8a3cd28)</rdf:li>
            <rdf:li>hash(0x8a3ccf8)</rdf:li>
            <rdf:li>signs_and_symbols</rdf:li>
            <rdf:li>office</rdf:li>
            <rdf:li>christianity</rdf:li>
            <rdf:li>hash(0x8a3cca4)</rdf:li>
          </rdf:Bag>
        </dc:subject>
        <dc:publisher>
          <cc:Agent
             rdf:about="http://www.openclipart.org">
            <dc:title>Linda Kim</dc:title>
          </cc:Agent>
        </dc:publisher>
        <dc:creator>
          <cc:Agent>
            <dc:title>Linda Kim</dc:title>
          </cc:Agent>
        </dc:creator>
        <dc:rights>
          <cc:Agent>
            <dc:title>Linda Kim</dc:title>
          </cc:Agent>
        </dc:rights>
        <dc:date />
        <dc:format>image/svg+xml</dc:format>
        <dc:type
           rdf:resource="http://purl.org/dc/dcmitype/StillImage" />
        <cc:license
           rdf:resource="http://web.resource.org/cc/PublicDomain" />
        <dc:language>en</dc:language>
      </cc:Work>
      <cc:License
         rdf:about="http://web.resource.org/cc/PublicDomain">
        <cc:permits
           rdf:resource="http://web.resource.org/cc/Reproduction" />
        <cc:permits
           rdf:resource="http://web.resource.org/cc/Distribution" />
        <cc:permits
           rdf:resource="http://web.resource.org/cc/DerivativeWorks" />
      </cc:License>
    </rdf:RDF>
  </metadata>
  <defs
     id="defs3" />
  <sodipodi:namedview
     bordercolor="#666666"
     borderopacity="1.0"
     id="base"
     inkscape:current-layer="layer1"
     inkscape:cx="-382.05273"
     inkscape:cy="298.84025"
     inkscape:document-units="px"
     inkscape:pageopacity="0.0"
     inkscape:pageshadow="2"
     inkscape:window-height="1131"
     inkscape:window-width="1920"
     inkscape:window-x="-3"
     inkscape:window-y="-3"
     inkscape:zoom="0.35"
     pagecolor="#ffffff"
     showgrid="false"
     inkscape:window-maximized="1"
     fit-margin-top="0"
     fit-margin-left="0"
     fit-margin-right="0"
     fit-margin-bottom="0" />
  <g
     id="layer1"
     inkscape:groupmode="layer"
     inkscape:label="Layer 1"
     transform="translate(-179.81811,-195.00931)">
    <path
       d="m 201.55816,239.32523 c 28.68146,4.79944 87.3493,46.2353 118.02118,83.35539 35.49933,42.9632 39.5488,43.16691 60.30962,3.03825 6.41965,-12.40872 11.34735,-16.96771 15.64376,-14.47223 4.77878,2.77481 5.4292,1.97008 2.7316,-3.37718 -4.58557,-9.08894 29.72051,-34.06391 39.10586,-28.46914 5.02889,2.99783 5.75495,1.41278 3.47658,-7.59119 -1.58385,-6.25851 -0.0626,-13.59677 3.3797,-16.30618 3.44312,-2.70982 4.84411,-7.64874 3.11375,-10.97526 -5.81061,-11.17033 2.24223,-15.69769 10.79037,-6.06584 7.95409,8.96126 8.18105,8.79266 5.01467,-3.72073 -1.99631,-7.88924 -0.24938,-15.35521 4.3898,-18.758 4.23798,-3.1086 11.54365,-9.76279 16.23566,-14.78762 4.69118,-5.02476 11.2831,-7.49456 14.6483,-5.48852 8.94322,5.33122 13.21241,27.14105 6.36713,32.52873 -3.23738,2.54824 -3.33833,7.87105 -0.22367,11.82778 4.55502,5.78769 2.20503,11.83492 -12.01665,30.9199 -11.92077,15.99666 -16.27399,25.3551 -13.36478,28.72995 2.93788,3.40664 -7.37074,25.11523 -32.2959,68.0136 -20.13568,34.65479 -37.95625,65.8235 -39.60039,69.26314 -1.6442,3.43924 1.29149,12.1918 6.52441,19.44933 5.23322,7.25743 22.3495,39.37565 38.03688,71.37277 15.6874,31.99772 31.99309,64.57906 36.23467,72.40368 27.93187,51.52319 32.29761,61.83225 31.03344,73.27524 -0.77659,7.03004 -5.26389,16.57311 -9.97159,21.20635 -9.22528,9.08006 -42.08728,6.89842 -60.3823,-4.0076 -19.47238,-11.60786 -72.70137,-97.52619 -80.30756,-129.62637 -10.11368,-42.68309 -14.92905,-43.08664 -39.2866,-3.28929 -32.54668,53.17878 -59.41763,90.09571 -70.38543,96.69727 -15.80494,9.51324 -45.71511,7.65242 -59.67505,-3.71242 -6.84592,-5.57321 -14.47739,-18.94777 -16.95935,-29.72078 -4.45226,-19.32823 -4.23608,-19.83998 16.31572,-38.62367 13.51953,-12.35637 35.33142,-42.54673 62.16254,-86.04025 l 41.33505,-67.00383 -30.12978,-46.40225 c -37.43415,-57.65167 -53.72101,-80.03884 -68.52895,-94.19726 -14.13763,-13.51739 -19.29623,-31.33153 -10.41218,-35.95327 3.94282,-2.05055 3.80388,-3.37799 -0.34594,-3.31147 -3.80983,0.0609 -6.97361,-2.81306 -7.03024,-6.38646 -0.0573,-3.57362 7.1634,-5.2811 16.04563,-3.79463 z"
       id="path12"
       style="fill:#000000"
       inkscape:connector-curvature="0" />
  </g>
</svg>
